<?xml version="1.0" encoding="UTF-8"?>
<svg id="Layer_1" data-name="Layer 1" xmlns="http://www.w3.org/2000/svg" viewBox="0 0 500 200">
  <path d="m355.81,79.4c0-31.31-28.39-41.16-45.83-45.69-9.14-2.37-81.5-14.77-152.4-13.23-58.92,1.28-123.08,9.61-137.54,21.28v.04c-10,5.94-17.19,15.56-17.19,27.81,0,9.03,6.47,15.96,15.5,15.96s13.25-6.02,13.25-12.34c0-8.43-4.97-8.43-4.97-8.43,0,0-.3,4.37-4.82,4.37-3.46,0-5.42-2.86-5.42-7.07,0-3.54,1.29-6.86,3.63-9.72,2.86-2.55,4.53-4.04,6.38-5.16,4.65-2.54,10.74-4.08,17.98-4.08,18.66,0,26.79,10.69,26.79,26.49,0,13.25-5.12,24.54-19.27,27.69v-26.79c0-14.3,2.71-17.76,6.02-16.56,0,0-2.11-3.91-7.22-3.91s-6.32,3.31-6.32,3.31c0,0-1.35-3.31-6.47-3.31s-7.22,3.91-7.22,3.91c3.31-1.2,5.87,2.26,5.87,16.56v27.69c-13.4,1.35-18.66,6.77-18.66,12.04,0,4.21,2.56,8.13,7.98,8.13,3.91,0,4.97-3.46,4.97-3.46-1.35-.6-5.57-7.53,5.72-9.63v40.03c0,14.3-2.71,18.21-5.87,17.01,0,0,1.96,3.92,7.07,3.92s6.47-3.31,6.47-3.31c0,0,1.35,3.31,6.47,3.31s7.22-3.92,7.22-3.92c-3.31,1.2-6.02-2.71-6.02-17.01v-39.58c15.2,3.31,23.63,15.2,23.63,32.36,0,19.27-12.49,33.71-31.31,33.71-17.16,0-26.34-8.73-26.34-19.11,0-4.21,1.96-7.07,5.27-7.07,4.67,0,4.97,4.37,4.97,4.37,0,0,4.82-2.56,4.82-10.99s-6.17-14.75-15.2-14.75S0,130.58,0,143.22c0,24.23,23.93,36.43,44.25,36.43s47.41-10.09,47.41-41.54c0-21.37-12.04-31.61-27.24-36.88,12.94-5.57,22.73-16.56,22.73-32.36s-10-25.45-22.52-30.17c21.03-4.3,55.13-9.22,91.52-9.22,62.17,0,106.7,5.66,131.31,9.92-8.73,3.7-16.3,9.81-20.3,18.31v-3.74s-1.8.75-4.21.75-3.76-.75-7.68-.75c-15.69,0-28.46,20.97-29.95,47.96v-38.78c0-5.57,2.41-7.83,4.37-8.43h-17.91c1.81.6,4.06,2.86,4.37,8.43v44.7l-16.25-53.13h-20.77c1.8.6,4.37,2.86,4.37,8.43v88.35c-.22,4.23-1.52,6.55-2.9,7.73-1.68-1.3-3.49-3.93-4.17-8.03l-13.24-96.48h-21.82c1.96.6,3.61,3.46,2.86,8.73l-12.04,87.75c-.46,3.33-.81,4.71-.87,6.84l3.48-13.93c-1.05,2.11-7.13,7.84-14.2,7.84h-13.55V63.15c0-5.57,2.56-7.83,4.36-8.43h-22.58c1.8.6,4.37,2.86,4.37,8.43v88.35c0,5.72-2.56,7.98-4.37,8.58h55.39c-1.81-.6-3.91-3.16-3.16-8.58l2.56-19.27h16.11l2.41,19.27c.6,5.42-1.51,7.98-3.46,8.58h38.38c-1.81-.6-4.37-2.86-4.37-8.58v-73.9l23.48,82.48h9.18v-47.46c1.5,27.24,14.26,48.21,29.95,48.21,8.28,0,11.89-4.06,11.89-4.06l-3.76-11.74c-2.26,5.27-5.57,7.22-8.13,7.22-9.18,0-15.8-17.46-15.8-45s6.62-44.7,15.8-44.7c4.55,0,7.27,2.45,9.07,5.5-.12,1.15-.19,2.32-.19,3.53,0,12.64,8.73,18.96,17.76,18.96s15.2-6.17,15.2-14.75-4.82-10.99-4.82-10.99c0,0-.3,4.37-4.97,4.37-3.31,0-5.27-2.86-5.27-7.07,0-9.98,8.49-18.26,24.37-18.9.85.2,1.54.37,2.06.51,2.06-.19,3.99-.16,5.84-.02,15.45,2.8,25.37,16.64,25.37,36.47s-8.43,33.86-23.63,37.33v-48.01c0-14.3,2.71-18.21,5.87-17.01,0,0-1.96-3.91-7.07-3.91s-6.47,3.31-6.47,3.31c0,0-1.35-3.31-6.47-3.31s-7.07,3.91-7.07,3.91c3.16-1.2,5.87,2.71,5.87,17.01v48.31c-11.29-2.11-7.07-9.03-5.72-9.48,0,0-1.2-3.61-4.97-3.61-5.42,0-7.98,3.91-7.98,8.13,0,5.27,5.27,10.69,18.66,12.19v27.69c0,14.3-2.71,18.21-5.87,17.01,0,0,1.96,3.91,7.07,3.91s6.47-3.31,6.47-3.31c0,0,4.36,9.33,15.8,9.33,6.47,0,8.13-4.21,8.13-4.21-9.48,1.2-16.25-7.38-16.25-22.73v-27.85c20.47-2.86,39.74-17.01,39.74-45.45Zm-211.02,44.85l7.23-52.23,6.62,52.23h-13.85Z"/>
  <path d="m381.85,53.97c-18.21,0-27.54,23.63-27.54,53.43s9.33,53.43,27.54,53.43,27.54-23.78,27.54-53.43-9.33-53.43-27.54-53.43Zm0,98.43c-10.09,0-12.94-20.02-12.94-45s2.86-45,12.94-45,12.79,19.87,12.79,45-2.71,45-12.79,45Z"/>
  <path d="m456.95,54.72h-17.91c1.81.6,4.06,2.86,4.37,8.43v44.7l-16.25-53.13h-20.77c1.8.6,4.37,2.86,4.37,8.43v88.35c-.3,5.72-2.56,7.98-4.37,8.58h17.91c-1.81-.6-4.37-2.86-4.37-8.58v-73.9l23.48,82.48h9.18V63.15c0-5.57,2.41-7.83,4.37-8.43Z"/>
  <path d="m488.11,62.7c7.07,0,10.69,5.57,11.89,7.68l-3.91-15.65h-38.23l-3.91,15.65c1.2-2.11,4.97-7.68,12.04-7.68h4.06v88.8c0,5.72-2.41,7.98-4.37,8.58h22.58c-1.81-.6-4.37-2.86-4.37-8.58V62.7h4.21Z"/>
</svg>