<?xml version="1.0" encoding="UTF-8"?>
<svg id="Layer_1" data-name="Layer 1" xmlns="http://www.w3.org/2000/svg" viewBox="0 0 230.06 196.24">
  <defs>
    <style>
      .cls-1 {
        fill: #fff;
      }
    </style>
  </defs>
  <path class="cls-1" d="m230.06,68.45c0-21.74-10.43-36.52-24.01-45.48-.08-.05-.15-.12-.23-.17-.09-.05-.19-.11-.28-.16-2.19-1.42-4.46-2.68-6.78-3.8C181.04,9.47,154.63,0,113.2,0c-28.07,0-55.17,6.78-79.6,16.51h0C16.84,23.25,3.65,37.22,3.65,55.98c0,11.51,8.25,20.34,19.76,20.34s16.89-7.67,16.89-15.73c0-10.75-6.33-10.75-6.33-10.75,0,0-.38,5.56-6.14,5.56-4.41,0-6.91-3.65-6.91-9.02,0-8.47,5.66-15.99,15.45-20.31.07-.03.14-.06.21-.09,1.07-.43,2.16-.84,3.25-1.25,4.83-1.61,10.46-2.53,16.77-2.53,23.79,0,34.15,13.62,34.15,33.77,0,16.89-6.52,31.28-24.56,35.31v-34.15c0-18.23,3.45-22.64,7.67-21.11,0,0-2.69-4.99-9.21-4.99s-8.06,4.22-8.06,4.22c0,0-1.73-4.22-8.25-4.22s-9.21,4.99-9.21,4.99c4.22-1.54,7.48,2.88,7.48,21.11v35.31c-17.08,1.73-23.79,8.63-23.79,15.35,0,5.37,3.26,10.36,10.17,10.36,4.99,0,6.33-4.41,6.33-4.41-1.73-.77-7.1-9.59,7.29-12.28v51.04c0,18.23-3.45,23.22-7.48,21.68,0,0,2.49,4.99,9.02,4.99s8.25-4.22,8.25-4.22c0,0,1.73,4.22,8.25,4.22s9.21-4.99,9.21-4.99c-4.22,1.54-7.67-3.45-7.67-21.68v-50.46c19.38,4.22,30.12,19.38,30.12,41.25,0,24.56-15.93,42.98-39.91,42.98-21.87,0-33.58-11.13-33.58-24.37,0-5.37,2.49-9.02,6.72-9.02,5.95,0,6.33,5.57,6.33,5.57,0,0,6.14-3.26,6.14-14.01s-7.87-18.8-19.38-18.8S0,133.69,0,149.81c0,30.89,30.51,46.43,56.41,46.43s60.44-12.86,60.44-52.96c0-27.25-15.35-40.29-34.73-47.01,16.5-7.1,28.97-21.11,28.97-41.25,0-22.27-15.55-34.92-33.79-40.13,11.66-1.9,23.73-2.88,35.9-2.88,17.58,0,30.71.29,41.76,1.64-21.51,4.69-41.76,19.66-41.76,44.83,0,16.12,11.13,24.18,22.64,24.18s19.38-7.87,19.38-18.8-6.14-14.01-6.14-14.01c0,0-.38,5.56-6.33,5.56-4.22,0-6.72-3.65-6.72-9.02,0-13.24,11.71-24.18,33.58-24.18,23.99,0,39.91,18.8,39.91,47.2,0,25.71-10.75,43.17-30.12,47.59v-61.21c0-18.23,3.45-23.22,7.48-21.68,0,0-2.5-4.99-9.02-4.99s-8.25,4.22-8.25,4.22c0,0-1.73-4.22-8.25-4.22s-9.02,4.99-9.02,4.99c4.03-1.54,7.48,3.45,7.48,21.68v61.59c-14.39-2.69-9.02-11.51-7.29-12.09,0,0-1.54-4.6-6.33-4.6-6.91,0-10.17,4.99-10.17,10.36,0,6.72,6.72,13.62,23.79,15.54v35.31c0,18.23-3.45,23.22-7.48,21.68,0,0,2.49,4.99,9.02,4.99s8.25-4.22,8.25-4.22c0,0,5.56,11.9,20.15,11.9,8.25,0,10.36-5.37,10.36-5.37-12.09,1.54-20.72-9.4-20.72-28.97v-35.5c26.1-3.65,50.66-21.68,50.66-57.95Z"/>
</svg>